{"title":"Barely Legal 18th Birthday 03 DVDRip","uid":8935746,"size":825138188,"categoryP":"porn","categoryS":"movies","magnet":"?xt=urn:btih:08f62317a5b5f48606cca4c34e5a1f781e46039a&amp;dn=Barely+Legal+18th+Birthday+03+DVDRip&amp;tr=udp%3A%2F%2Ftracker.openbittorrent.com%3A80&amp;tr=udp%3A%2F%2Fopen.demonii.com%3A1337&amp;tr=udp%3A%2F%2Ftracker.coppersurfer.tk%3A6969&amp;tr=udp%3A%2F%2Fexodus.desync.com%3A6969","seeders":0,"leechers":1,"uploader":null,"files":1,"time":1379558799,"description":"Barely Legal 18th Birthday 03 DVDRip\n &lt;a href=&quot;\nhttp://picturemost.biz/share.php?id=CA8F_523A4818&quot; rel=&quot;nofollow&quot; target=&quot;_NEW&quot;&gt;\nhttp://picturemost.biz/share.php?id=CA8F_523A4818&lt;/a&gt;\n\n\n\nBirthday girl Angel is giggly with excitement because her boyfriend has presents galore along with balloons and streamers in her living room. All of the gifts are sexy lingerie which she uses to put on a fashion show before he anally penetrates her as her final 18th birthday gift along with atms, ass gapes and a cum facial on her..\n\nFormat : AVI\nFormat/Info : Audio Video Interleave\nFile size : 787 MiB\nDuration : 1h 29mn\nOverall bit rate mode : Variable\nOverall bit rate : 1 227 Kbps\nWriting application : MEncoder r33883\nWriting library : MPlayer\n\nVideo\nID : 0\nFormat : MPEG-4 Visual\nFormat profile : Simple@L3\nFormat settings, BVOP : No\nFormat settings, QPel : No\nFormat settings, GMC : No warppoints\nFormat settings, Matrix : Default (H.263)\nCodec ID : XVID\nCodec ID/Hint : XviD\nDuration : 1h 29mn\nBit rate : 1 092 Kbps\nWidth : 320 pixels\nHeight : 240 pixels\nDisplay aspect ratio : 4:3\nFrame rate : 25.000 fps\nColor space : YUV\nChroma subsampling : 4:2:0\nBit depth : 8 bits\nScan type : Progressive\nCompression mode : Lossy\nBits/(Pixel*Frame) : 0.569\nStream size : 700 MiB (89%)\nWriting library : XviD 63\n\nAudio\nID : 1\nFormat : MPEG Audio\nFormat version : Version 1\nFormat profile : Layer 3\nMode : Joint stereo\nMode extension : MS Stereo\nCodec ID : 55\nCodec ID/Hint : MP3\nDuration : 1h 29mn\nBit rate mode : Variable\nBit rate : 123 Kbps\nChannel(s) : 2 channels\nSampling rate : 44.1 KHz\nCompression mode : Lossy\nStream size : 78.7 MiB (10%)\nAlignment : Aligned on interleaves\nInterleave, duration : 26 ms (0.65 video frame)\nInterleave, preload duration : 462 ms","torrent":{"xt":"urn:btih:08f62317a5b5f48606cca4c34e5a1f781e46039a","amp;dn":"Barely+Legal+18th+Birthday+03+DVDRip","amp;tr":["udp%3A%2F%2Ftracker.openbittorrent.com%3A80","udp%3A%2F%2Fopen.demonii.com%3A1337","udp%3A%2F%2Ftracker.coppersurfer.tk%3A6969","udp%3A%2F%2Fexodus.desync.com%3A6969"],"infoHash":"08f62317a5b5f48606cca4c34e5a1f781e46039a","infoHashBuffer":{"type":"Buffer","data":[8,246,35,23,165,181,244,134,6,204,164,195,78,90,31,120,30,70,3,154]},"announce":[],"urlList":[]}}